HIERARCHY
ROOT Hips
{
 OFFSET 0.000000 0.000000 0.000000
 CHANNELS 6 Xposition Yposition Zposition Yrotation Xrotation Zrotation
 JOINT Chest
 {
  OFFSET 0.000000 9.588913 -0.003946
  CHANNELS 3 Yrotation Xrotation Zrotation
  JOINT Chest2
  {
   OFFSET 0.000000 9.541882 0.008053
   CHANNELS 3 Yrotation Xrotation Zrotation
   JOINT Chest3
   {
    OFFSET 0.000000 9.501360 0.000000
    CHANNELS 3 Yrotation Xrotation Zrotation
    JOINT Chest4
    {
     OFFSET 0.000000 9.491660 0.000000
     CHANNELS 3 Yrotation Xrotation Zrotation
     JOINT Neck
     {
      OFFSET 0.000000 14.331917 0.000000
      CHANNELS 3 Yrotation Xrotation Zrotation
      JOINT Head
      {
       OFFSET 0.000000 8.884799 0.017034
       CHANNELS 3 Yrotation Xrotation Zrotation
       End Site
       {
        OFFSET 0.000000 16.896195 0.008993
       }
      }
     }
     JOINT RightCollar
     {
      OFFSET -2.923010 9.499495 0.000000
      CHANNELS 3 Yrotation Xrotation Zrotation
      JOINT RightShoulder
      {
       OFFSET -13.795216 0.000000 0.000000
       CHANNELS 3 Yrotation Xrotation Zrotation
       JOINT RightElbow
       {
        OFFSET -30.272209 0.000000 0.000000
        CHANNELS 3 Yrotation Xrotation Zrotation
        JOINT RightWrist
        {
         OFFSET -24.478199 0.000000 0.000000
         CHANNELS 3 Yrotation Xrotation Zrotation
         End Site
         {
          OFFSET -18.090752 0.000000 0.000000
         }
        }
       }
      }
     }
     JOINT LeftCollar
     {
      OFFSET 2.923010 9.499495 0.000000
      CHANNELS 3 Yrotation Xrotation Zrotation
      JOINT LeftShoulder
      {
       OFFSET 13.795216 0.000000 0.000000
       CHANNELS 3 Yrotation Xrotation Zrotation
       JOINT LeftElbow
       {
        OFFSET 30.272209 0.000000 0.000000
        CHANNELS 3 Yrotation Xrotation Zrotation
        JOINT LeftWrist
        {
         OFFSET 24.478199 0.000000 0.000000
         CHANNELS 3 Yrotation Xrotation Zrotation
         End Site
         {
          OFFSET 18.090752 0.000000 0.000000
         }
        }
       }
      }
     }
    }
   }
  }
 }
 JOINT RightHip
 {
  OFFSET -7.826875 0.019532 0.001973
  CHANNELS 3 Yrotation Xrotation Zrotation
  JOINT RightKnee
  {
   OFFSET 0.000000 -40.546152 -0.001885
   CHANNELS 3 Yrotation Xrotation Zrotation
   JOINT RightAnkle
   {
    OFFSET 0.000000 -39.417092 -0.003189
    CHANNELS 3 Yrotation Xrotation Zrotation
    JOINT RightToe
    {
     OFFSET 0.000000 -7.579396 17.243563
     CHANNELS 3 Yrotation Xrotation Zrotation
     End Site
     {
      OFFSET 0.000000 -1.500329 6.694466
     }
    }
   }
  }
 }
 JOINT LeftHip
 {
  OFFSET 7.826875 0.019532 0.001973
  CHANNELS 3 Yrotation Xrotation Zrotation
  JOINT LeftKnee
  {
   OFFSET 0.000000 -40.546152 -0.001885
   CHANNELS 3 Yrotation Xrotation Zrotation
   JOINT LeftAnkle
   {
    OFFSET 0.000000 -39.417092 -0.003189
    CHANNELS 3 Yrotation Xrotation Zrotation
    JOINT LeftToe
    {
     OFFSET 0.000000 -7.579396 17.243563
     CHANNELS 3 Yrotation Xrotation Zrotation
     End Site
     {
      OFFSET 0.000000 -1.500329 6.694466
     }
    }
   }
  }
 }
}
MOTION
Frames: 6
Frame Time: 0.008333
0.000000 87.345680 0.000000 0.000000 -5.767889 0.000000 0.000000 11.653876 0.000000 0.000000 -5.885988 0.000000 0.000000 -0.000000 0.000000 0.000000 -0.000000 0.000000 0.000000 12.528808 0.000000 0.000000 0.711711 0.000000 0.000000 -0.000000 0.000000 0.000000 -0.000000 0.000000 2.309063 -0.000000 0.000000 -2.309063 -0.000000 -0.000000 0.000000 -0.000000 0.000000 0.000000 0.000000 0.000000 -2.309063 0.000000 0.000000 2.309063 -0.000000 0.000000 0.000000 8.520374 0.000000 0.000000 1.905768 0.000000 -0.000000 -4.658254 0.000000 0.000000 -0.000000 0.000000 0.000000 8.520374 0.000000 0.000000 1.905768 0.000000 -0.000000 -4.658254 0.000000 0.000000 -0.000000 0.000000
8.300460 25.414379 7.264678 -46.649446 -39.840376 13.442258 20.511465 27.632341 13.711836 10.651988 16.517350 5.844662 13.732216 20.444902 7.885584 10.651988 16.517350 5.844662 9.847556 8.516988 -14.803513 16.115183 -15.951323 -20.903460 19.431251 -1.211905 -26.229185 27.786877 -61.124653 46.515200 95.747090 7.782468 -3.304743 11.774220 -6.900504 -7.742528 6.295547 2.681376 -4.096281 19.798380 -47.396753 -102.827960 -125.232583 -27.005100 -11.367737 -19.037807 22.830929 25.556920 -5.901036 -37.170507 42.170231 -153.849887 19.901639 177.134316 -29.001302 -53.934994 32.355801 -0.561491 -9.993885 3.278004 20.903877 -57.627779 46.604902 177.220747 14.839337 -169.635027 -25.522083 -38.071552 -1.526145 -3.014280 -18.359246 30.160473
8.299389 25.413938 7.262723 -46.650175 -39.841945 13.439977 20.510505 27.627645 13.708050 10.651460 16.514589 5.844268 13.731428 20.441480 7.884938 10.651460 16.514589 5.844268 9.859800 8.527433 -14.799213 16.128303 -15.938332 -20.900604 19.428562 -1.204027 -26.223521 27.796884 -61.122968 46.512753 95.749475 7.785869 -3.306999 11.731825 -6.900360 -7.716511 6.293787 2.682765 -4.090449 19.795207 -47.385044 -102.833553 -125.230611 -27.011776 -11.371681 -19.036292 22.833081 25.557799 -5.916756 -37.164979 42.185013 -153.848302 19.901334 177.131432 -28.987506 -53.934893 32.337930 -0.559685 -9.996247 3.274039 20.891691 -57.625091 46.608585 177.209349 14.842429 -169.641116 -25.531728 -38.073209 -1.526324 -3.012815 -18.358910 30.153020
8.298354 25.412966 7.260030 -46.645581 -39.842483 13.433089 20.510385 27.618852 13.708471 10.650543 16.512372 5.843626 13.730158 20.438753 7.883987 10.650543 16.512372 5.843626 9.866833 8.535361 -14.794755 16.134848 -15.928818 -20.895949 19.425387 -1.192239 -26.218408 27.795535 -61.124408 46.511535 95.753882 7.784327 -3.305364 11.700156 -6.897609 -7.698241 6.293500 2.683494 -4.086444 19.784917 -47.377451 -102.835694 -125.228932 -27.018261 -11.376877 -19.034196 22.833903 25.557465 -5.937273 -37.162831 42.198689 -153.850659 19.900699 177.124870 -28.962710 -53.939088 32.309004 -0.558081 -9.999872 3.269467 20.870941 -57.626304 46.614639 177.202691 14.842359 -169.649446 -25.529732 -38.074349 -1.530022 -3.013621 -18.360737 30.144098
8.297631 25.411588 7.256930 -46.638039 -39.842278 13.425380 20.509838 27.608840 13.709152 10.649936 16.510111 5.842731 13.729267 20.435972 7.882728 10.649937 16.510111 5.842731 9.870594 8.541594 -14.791356 16.137713 -15.921499 -20.891773 19.419534 -1.179045 -26.212348 27.779948 -61.126689 46.513427 95.763820 7.776931 -3.298987 11.678126 -6.894193 -7.688142 6.291027 2.683190 -4.085262 19.768113 -47.373409 -102.832549 -125.225563 -27.023355 -11.382544 -19.034212 22.830924 25.554875 -5.958053 -37.161393 42.211680 -153.852852 19.899736 177.120334 -28.948801 -53.942058 32.292080 -0.557835 -10.001446 3.262879 20.849186 -57.630864 46.619890 177.203724 14.838824 -169.658209 -25.517418 -38.074158 -1.529162 -3.016437 -18.362438 30.131791
8.297055 25.410065 7.253692 -46.630221 -39.843114 13.418726 20.509314 27.600824 13.709518 10.649923 16.507460 5.841648 13.729101 20.432699 7.881243 10.649923 16.507460 5.841648 9.872459 8.547131 -14.790295 16.139050 -15.914931 -20.890205 19.412420 -1.168647 -26.207428 27.752063 -61.126802 46.521539 95.775036 7.769497 -3.291072 11.664393 -6.892345 -7.685646 6.283826 2.681544 -4.084574 19.749490 -47.371104 -102.825039 -125.218554 -27.025768 -11.386128 -19.037287 22.826206 25.547925 -5.976480 -37.158170 42.223580 -153.852421 19.898737 177.121301 -28.951255 -53.942682 32.292508 -0.558654 -9.999373 3.255268 20.828932 -57.635647 46.624365 177.207663 14.833339 -169.666761 -25.499830 -38.073532 -1.528507 -3.018743 -18.365093 30.119299
